<svg id="_048-instagram" data-name="048-instagram" xmlns="http://www.w3.org/2000/svg" width="22.048" height="22.049" viewBox="0 0 22.048 22.049">
  <path id="Path_44" data-name="Path 44" d="M0,4.581V17.467a4.581,4.581,0,0,0,4.581,4.581H17.467a4.581,4.581,0,0,0,4.581-4.581V4.581A4.581,4.581,0,0,0,17.467,0H4.581A4.581,4.581,0,0,0,0,4.581Zm13.36,12.69A6.687,6.687,0,0,1,4.777,8.689,6.326,6.326,0,0,1,8.689,4.777a6.687,6.687,0,0,1,8.583,8.583A6.325,6.325,0,0,1,13.36,17.271ZM18.675,4.357a.862.862,0,0,1-1.51.408.524.524,0,0,1-.045-.06.863.863,0,0,1-.034-.916.856.856,0,0,1,1.17-.313.863.863,0,0,1,.428.81.53.53,0,0,1-.009.071Zm0,0" transform="translate(0 0)" fill="#fff"/>
  <path id="Path_45" data-name="Path 45" d="M169.879,164.523a5.356,5.356,0,1,0,5.356,5.356A5.362,5.362,0,0,0,169.879,164.523Zm0,0" transform="translate(-158.855 -158.855)" fill="#fff"/>
</svg>
