<svg xmlns="http://www.w3.org/2000/svg" width="24.135" height="22.048" viewBox="0 0 24.135 22.048">
  <path id="_034-twitter-1" data-name="034-twitter-1" d="M8.386,20.466a9.915,9.915,0,0,1-3.849-.757,9.053,9.053,0,0,1-3.173-2.2L.011,16.031l1.98.3a7.794,7.794,0,0,0,3.764-.161,11.445,11.445,0,0,1-2-1.208A8.9,8.9,0,0,1,.1,8.2L0,6.32l.848.867A9.831,9.831,0,0,1,.964,3.751L1.405,1.57l.532,1.211A6.856,6.856,0,0,1,3.077-.249L4-1.582,4.346,0A11.087,11.087,0,0,0,6.234,4.364a6.832,6.832,0,0,0,2.43,2.025,6.6,6.6,0,0,0,2.277.639A5.474,5.474,0,0,1,21.614,4.766l2.52.787L21.845,7.415v.3a12.213,12.213,0,0,1-3.739,8.825,14.236,14.236,0,0,1-8.931,3.894q-.4.028-.789.028Zm0,0" transform="translate(0.001 1.583)" fill="#fff"/>
</svg>
